<?xml version="1.0" encoding="UTF-8"?>
<!DOCTYPE svg PUBLIC "-//W3C//DTD SVG 1.1//EN" "http://www.w3.org/Graphics/SVG/1.1/DTD/svg11.dtd">
<svg xmlns="http://www.w3.org/2000/svg" version="1.1" width="200px" height="200px" style="shape-rendering:geometricPrecision; text-rendering:geometricPrecision; image-rendering:optimizeQuality; fill-rule:evenodd; clip-rule:evenodd" xmlns:xlink="http://www.w3.org/1999/xlink">
<g><path style="opacity:1" fill="#b8e5fb" d="M -0.5,-0.5 C 66.1667,-0.5 132.833,-0.5 199.5,-0.5C 199.5,66.1667 199.5,132.833 199.5,199.5C 132.833,199.5 66.1667,199.5 -0.5,199.5C -0.5,132.833 -0.5,66.1667 -0.5,-0.5 Z"/></g>
<g><path style="opacity:1" fill="#f3af43" d="M 137.5,17.5 C 138.11,18.391 138.443,19.391 138.5,20.5C 135.796,19.2857 133.129,19.2857 130.5,20.5C 129.5,20.5 128.5,20.5 127.5,20.5C 127.532,18.4334 128.532,17.1001 130.5,16.5C 132.782,17.2234 135.116,17.5567 137.5,17.5 Z"/></g>
<g><path style="opacity:1" fill="#e17d49" d="M 137.5,17.5 C 140.238,16.9648 142.072,17.9648 143,20.5C 144.049,18.8934 145.549,18.2267 147.5,18.5C 147.5,19.5 147.5,20.5 147.5,21.5C 144.43,21.6323 141.43,21.299 138.5,20.5C 138.443,19.391 138.11,18.391 137.5,17.5 Z"/></g>
<g><path style="opacity:1" fill="#e57033" d="M 127.5,20.5 C 128.5,20.5 129.5,20.5 130.5,20.5C 129.105,24.2901 127.438,27.9568 125.5,31.5C 124.209,31.7373 123.209,31.404 122.5,30.5C 124.137,27.1835 125.804,23.8501 127.5,20.5 Z"/></g>
<g><path style="opacity:1" fill="#f1b44a" d="M 77.5,28.5 C 79.8333,30.1667 81.8333,32.1667 83.5,34.5C 80.5982,35.7837 77.5982,36.7837 74.5,37.5C 74.1494,33.8413 75.1494,30.8413 77.5,28.5 Z"/></g>
<g><path style="opacity:1" fill="#bee2eb" d="M 67.5,27.5 C 65.882,28.4511 64.5487,29.7844 63.5,31.5C 65.6499,33.1491 67.6499,34.9824 69.5,37C 70.6001,37.4317 71.2668,36.9317 71.5,35.5C 71.0814,34.3279 70.4147,33.3279 69.5,32.5C 70.325,31.6143 71.325,31.281 72.5,31.5C 72.5,30.1667 72.5,28.8333 72.5,27.5C 73.2216,27.9175 73.7216,28.5842 74,29.5C 74.9236,27.5049 76.0903,27.1716 77.5,28.5C 75.1494,30.8413 74.1494,33.8413 74.5,37.5C 77.5982,36.7837 80.5982,35.7837 83.5,34.5C 83.9382,34.4346 84.2716,34.6012 84.5,35C 83.6721,35.9147 82.6721,36.5814 81.5,37C 83,39.1667 84.1667,39 85,36.5C 86.0386,37.2438 86.5386,38.2438 86.5,39.5C 81.5,39.5 76.5,39.5 71.5,39.5C 71.9422,43.1545 72.2756,46.8212 72.5,50.5C 71.1667,50.8333 69.8333,51.1667 68.5,51.5C 69.0916,48.8728 69.4249,46.2062 69.5,43.5C 66.4261,43.8726 63.4261,44.5392 60.5,45.5C 60.4431,44.391 60.1098,43.391 59.5,42.5C 58.71,41.3915 58.21,40.0581 58,38.5C 57.4444,40.5951 56.9444,40.7618 56.5,39C 57.1147,36.4854 58.1147,34.152 59.5,32C 58.1667,31.3333 57.1667,30.3333 56.5,29C 57.6667,27.1667 59.1667,25.6667 61,24.5C 63.2213,25.4059 65.3879,26.4059 67.5,27.5 Z"/></g>
<g><path style="opacity:1" fill="#eeb650" d="M 59.5,42.5 C 59.2317,39.8806 59.565,37.3806 60.5,35C 61.5,34.3333 62.5,34.3333 63.5,35C 65.2077,36.5095 66.8744,38.0095 68.5,39.5C 65.9756,40.7326 62.9756,41.7326 59.5,42.5 Z"/></g>
<g><path style="opacity:1" fill="#f2b347" d="M 67.5,27.5 C 69.1667,27.5 70.8333,27.5 72.5,27.5C 72.5,28.8333 72.5,30.1667 72.5,31.5C 71.325,31.281 70.325,31.6143 69.5,32.5C 70.4147,33.3279 71.0814,34.3279 71.5,35.5C 71.2668,36.9317 70.6001,37.4317 69.5,37C 67.6499,34.9824 65.6499,33.1491 63.5,31.5C 64.5487,29.7844 65.882,28.4511 67.5,27.5 Z"/></g>
<g><path style="opacity:1" fill="#f1b446" d="M 68.5,51.5 C 64.6263,51.6862 61.9596,49.6862 60.5,45.5C 63.4261,44.5392 66.4261,43.8726 69.5,43.5C 69.4249,46.2062 69.0916,48.8728 68.5,51.5 Z"/></g>
<g><path style="opacity:1" fill="#f0b448" d="M 122.5,30.5 C 123.209,31.404 124.209,31.7373 125.5,31.5C 124.307,34.0524 122.973,36.5524 121.5,39C 122.448,39.4828 123.448,39.6495 124.5,39.5C 121.581,65.8512 118.581,92.1845 115.5,118.5C 104.147,118.832 92.8138,118.499 81.5,117.5C 81.9569,116.702 82.6236,116.369 83.5,116.5C 93.5,116.5 103.5,116.5 113.5,116.5C 114.64,102.793 115.807,89.1268 117,75.5C 110.279,80.5684 107.279,78.9017 108,70.5C 112.18,66.2077 115.513,66.8744 118,72.5C 118.435,67.816 118.935,63.1493 119.5,58.5C 117.409,58.6816 115.409,58.3482 113.5,57.5C 112.265,58.3398 111.265,59.3398 110.5,60.5C 109.5,60.5 108.5,60.5 107.5,60.5C 107.751,58.8297 108.418,57.3297 109.5,56C 107.833,55.3333 106.167,55.3333 104.5,56C 102.723,57.804 100.556,58.6373 98,58.5C 94.9226,57.3869 91.7559,56.3869 88.5,55.5C 84.6921,57.2826 80.6921,58.6159 76.5,59.5C 78.0712,62.0227 77.5712,64.0227 75,65.5C 74.7679,64.2625 74.2679,63.2625 73.5,62.5C 73.3542,58.4809 73.0209,54.4809 72.5,50.5C 72.2756,46.8212 71.9422,43.1545 71.5,39.5C 76.5,39.5 81.5,39.5 86.5,39.5C 97.1667,39.5 107.833,39.5 118.5,39.5C 119.059,36.0567 120.393,33.0567 122.5,30.5 Z"/></g>
<g><path style="opacity:1" fill="#bee2eb" d="M 120.5,42.5 C 121.139,43.0968 121.472,43.9302 121.5,45C 120.877,48.4813 120.377,51.9813 120,55.5C 118.301,56.4061 116.467,56.7394 114.5,56.5C 114.366,54.7085 114.699,53.0418 115.5,51.5C 116.929,48.3037 118.595,45.3037 120.5,42.5 Z"/></g>
<g><path style="opacity:1" fill="#e66c2d" d="M 120.5,42.5 C 118.595,45.3037 116.929,48.3037 115.5,51.5C 114.5,51.5 113.5,51.5 112.5,51.5C 113.5,48.8333 114.5,46.1667 115.5,43.5C 116.234,42.0707 117.401,41.0707 119,40.5C 120.03,40.8361 120.53,41.5028 120.5,42.5 Z"/></g>
<g><path style="opacity:1" fill="#bae4f8" d="M 115.5,43.5 C 114.5,46.1667 113.5,48.8333 112.5,51.5C 107.32,52.1738 102.487,53.8404 98,56.5C 94.8095,54.9081 91.4761,53.5748 88,52.5C 84.4271,54.5342 80.5938,55.8676 76.5,56.5C 76.0019,51.8478 75.6686,47.1811 75.5,42.5C 87.9178,43.1341 100.084,42.4675 112,40.5C 112.985,41.8141 114.152,42.8141 115.5,43.5 Z"/></g>
<g><path style="opacity:1" fill="#c2e0e6" d="M 111.5,70.5 C 115.173,71.7076 115.34,73.3743 112,75.5C 110.212,73.9769 110.045,72.3102 111.5,70.5 Z"/></g>
<g><path style="opacity:1" fill="#bbe4f5" d="M 107.5,60.5 C 105.261,63.8745 103.594,67.5412 102.5,71.5C 100.436,74.2431 98.769,77.2431 97.5,80.5C 96.8466,81.8068 96.1799,83.1401 95.5,84.5C 98.7064,85.5793 100.373,84.2459 100.5,80.5C 102.696,77.4422 104.362,74.1089 105.5,70.5C 107.674,67.4846 109.341,64.1513 110.5,60.5C 111.265,59.3398 112.265,58.3398 113.5,57.5C 115.409,58.3482 117.409,58.6816 119.5,58.5C 118.935,63.1493 118.435,67.816 118,72.5C 115.513,66.8744 112.18,66.2077 108,70.5C 107.279,78.9017 110.279,80.5684 117,75.5C 115.807,89.1268 114.64,102.793 113.5,116.5C 103.5,116.5 93.5,116.5 83.5,116.5C 83.7845,114.585 83.4511,112.919 82.5,111.5C 81.7672,102.505 81.1005,93.5052 80.5,84.5C 84.4134,84.7595 86.7468,82.9261 87.5,79C 85.8326,75.0353 82.8326,73.5353 78.5,74.5C 78.7525,71.6802 78.2525,69.0135 77,66.5C 75.6081,69.2784 75.1081,72.2784 75.5,75.5C 74.5041,75.4142 73.6708,75.7476 73,76.5C 72.8333,76 72.6667,75.5 72.5,75C 72.1176,72.7453 72.7843,70.5786 74.5,68.5C 73.8444,66.5466 73.5111,64.5466 73.5,62.5C 74.2679,63.2625 74.7679,64.2625 75,65.5C 77.5712,64.0227 78.0712,62.0227 76.5,59.5C 80.6921,58.6159 84.6921,57.2826 88.5,55.5C 91.7559,56.3869 94.9226,57.3869 98,58.5C 100.556,58.6373 102.723,57.804 104.5,56C 106.167,55.3333 107.833,55.3333 109.5,56C 108.418,57.3297 107.751,58.8297 107.5,60.5 Z"/></g>
<g><path style="opacity:1" fill="#f0b549" d="M 103.5,80.5 C 110.807,80.606 112.807,83.7727 109.5,90C 101.421,90.8919 99.4212,87.7253 103.5,80.5 Z"/></g>
<g><path style="opacity:1" fill="#bce3ef" d="M 105.5,83.5 C 107.912,83.6941 108.912,85.0274 108.5,87.5C 107.167,87.5 105.833,87.5 104.5,87.5C 104.433,86.0413 104.766,84.7079 105.5,83.5 Z"/></g>
<g><path style="opacity:1" fill="#e56e2f" d="M 97.5,80.5 C 98.5,80.5 99.5,80.5 100.5,80.5C 100.373,84.2459 98.7064,85.5793 95.5,84.5C 96.1799,83.1401 96.8466,81.8068 97.5,80.5 Z"/></g>
<g><path style="opacity:1" fill="#f0b243" d="M 105.5,70.5 C 104.362,74.1089 102.696,77.4422 100.5,80.5C 99.5,80.5 98.5,80.5 97.5,80.5C 98.769,77.2431 100.436,74.2431 102.5,71.5C 103.609,71.4431 104.609,71.1098 105.5,70.5 Z"/></g>
<g><path style="opacity:1" fill="#e66e31" d="M 107.5,60.5 C 108.5,60.5 109.5,60.5 110.5,60.5C 109.341,64.1513 107.674,67.4846 105.5,70.5C 104.609,71.1098 103.609,71.4431 102.5,71.5C 103.594,67.5412 105.261,63.8745 107.5,60.5 Z"/></g>
<g><path style="opacity:1" fill="#f1b548" d="M 86.5,60.5 C 94.8773,60.2743 96.544,63.441 91.5,70C 84.4741,69.7595 82.8074,66.5928 86.5,60.5 Z"/></g>
<g><path style="opacity:1" fill="#bbe3f2" d="M 87.5,63.5 C 88.8333,63.5 90.1667,63.5 91.5,63.5C 91.7778,65.3464 91.1112,66.6798 89.5,67.5C 87.8888,66.6798 87.2222,65.3464 87.5,63.5 Z"/></g>
<g><path style="opacity:1" fill="#f0b44a" d="M 91.5,86.5 C 93.1238,86.3601 94.2904,87.0267 95,88.5C 95.3333,88.1667 95.6667,87.8333 96,87.5C 100.087,92.5774 98.9201,95.5774 92.5,96.5C 93.7166,102.448 91.3832,104.948 85.5,104C 80.7644,98.7457 81.7644,95.5791 88.5,94.5C 87.8285,91.014 88.8285,88.3473 91.5,86.5 Z"/></g>
<g><path style="opacity:1" fill="#bce3eb" d="M 86.5,97.5 C 87.5,97.5 88.5,97.5 89.5,97.5C 89.5,98.8333 89.5,100.167 89.5,101.5C 86.0464,101.733 85.0464,100.4 86.5,97.5 Z"/></g>
<g><path style="opacity:1" fill="#bee2e8" d="M 91.5,89.5 C 94.5,89.1667 95.8333,90.5 95.5,93.5C 94.1667,93.5 92.8333,93.5 91.5,93.5C 91.5,92.1667 91.5,90.8333 91.5,89.5 Z"/></g>
<g><path style="opacity:1" fill="#f0b54d" d="M 82.5,111.5 C 82.8432,113.483 82.1765,114.817 80.5,115.5C 78.9779,102.133 77.3112,88.7992 75.5,75.5C 75.1081,72.2784 75.6081,69.2784 77,66.5C 78.2525,69.0135 78.7525,71.6802 78.5,74.5C 82.8326,73.5353 85.8326,75.0353 87.5,79C 86.7468,82.9261 84.4134,84.7595 80.5,84.5C 81.1005,93.5052 81.7672,102.505 82.5,111.5 Z"/></g>
<g><path style="opacity:1" fill="#bce3ee" d="M 80.5,77.5 C 81.5,77.5 82.5,77.5 83.5,77.5C 83.5,78.8333 83.5,80.1667 83.5,81.5C 80.0464,81.7332 79.0464,80.3999 80.5,77.5 Z"/></g>
<g><path style="opacity:1" fill="#c8d7cb" d="M 77.5,75.5 C 79.337,75.6395 79.6704,76.3061 78.5,77.5C 77.7025,77.0431 77.3691,76.3764 77.5,75.5 Z"/></g>
<g><path style="opacity:1" fill="#f1b448" d="M 103.5,104.5 C 111.486,103.998 113.486,107.165 109.5,114C 101.999,114.33 99.9994,111.164 103.5,104.5 Z"/></g>
<g><path style="opacity:1" fill="#bce2ed" d="M 104.5,107.5 C 105.833,107.5 107.167,107.5 108.5,107.5C 108.5,108.833 108.5,110.167 108.5,111.5C 105.5,111.833 104.167,110.5 104.5,107.5 Z"/></g>
<g><path style="opacity:1" fill="#e2bd6c" d="M 82.5,111.5 C 83.4511,112.919 83.7845,114.585 83.5,116.5C 82.6236,116.369 81.9569,116.702 81.5,117.5C 92.8138,118.499 104.147,118.832 115.5,118.5C 115.5,118.833 115.5,119.167 115.5,119.5C 113.5,119.5 111.5,119.5 109.5,119.5C 109.167,119.5 108.833,119.5 108.5,119.5C 106.5,119.5 104.5,119.5 102.5,119.5C 100.5,119.5 98.5,119.5 96.5,119.5C 94.8333,119.5 93.1667,119.5 91.5,119.5C 88.5,119.5 85.5,119.5 82.5,119.5C 81.8333,119.5 81.1667,119.5 80.5,119.5C 80.5,118.167 80.5,116.833 80.5,115.5C 82.1765,114.817 82.8432,113.483 82.5,111.5 Z"/></g>
<g><path style="opacity:1" fill="#364d64" d="M 80.5,119.5 C 81.1667,119.5 81.8333,119.5 82.5,119.5C 86.5581,121.956 88.2247,125.623 87.5,130.5C 85.8333,130.5 84.1667,130.5 82.5,130.5C 83.8445,124.338 81.6778,122.338 76,124.5C 75.3333,131.167 75.3333,137.833 76,144.5C 77.4007,146.192 79.2341,146.859 81.5,146.5C 81.5,143.833 81.5,141.167 81.5,138.5C 83.5,138.5 85.5,138.5 87.5,138.5C 88.1452,143.588 86.4785,147.588 82.5,150.5C 80.1667,150.5 77.8333,150.5 75.5,150.5C 73.2921,149.977 71.7921,148.644 71,146.5C 70.3333,138.833 70.3333,131.167 71,123.5C 73.1945,120.037 76.3612,118.704 80.5,119.5 Z"/></g>
<g><path style="opacity:1" fill="#395067" d="M 109.5,119.5 C 111.5,119.5 113.5,119.5 115.5,119.5C 118.833,119.5 122.167,119.5 125.5,119.5C 125.5,120.833 125.5,122.167 125.5,123.5C 123.833,123.5 122.167,123.5 120.5,123.5C 120.5,132.5 120.5,141.5 120.5,150.5C 118.5,150.5 116.5,150.5 114.5,150.5C 114.5,141.5 114.5,132.5 114.5,123.5C 112.833,123.5 111.167,123.5 109.5,123.5C 109.5,122.167 109.5,120.833 109.5,119.5 Z"/></g>
<g><path style="opacity:1" fill="#384e66" d="M 131.5,119.5 C 133.833,119.5 136.167,119.5 138.5,119.5C 140.087,129.866 141.753,140.199 143.5,150.5C 141.833,150.5 140.167,150.5 138.5,150.5C 138.5,148.167 138.5,145.833 138.5,143.5C 132.5,142.167 130.167,144.5 131.5,150.5C 129.833,150.5 128.167,150.5 126.5,150.5C 127.885,140.137 129.552,129.804 131.5,119.5 Z"/></g>
<g><path style="opacity:1" fill="#3d546b" d="M 147.5,119.5 C 149.5,119.5 151.5,119.5 153.5,119.5C 153.5,129.833 153.5,140.167 153.5,150.5C 151.5,150.5 149.5,150.5 147.5,150.5C 147.5,140.167 147.5,129.833 147.5,119.5 Z"/></g>
<g><path style="opacity:1" fill="#394f67" d="M 39.5,150.5 C 37.5,150.5 35.5,150.5 33.5,150.5C 30.5479,149.641 28.7146,147.641 28,144.5C 27.3333,138.167 27.3333,131.833 28,125.5C 28.6853,122.943 30.1853,121.109 32.5,120C 41.6664,117.669 45.6664,121.169 44.5,130.5C 42.8333,130.5 41.1667,130.5 39.5,130.5C 39.6621,128.473 39.4955,126.473 39,124.5C 37.6124,123.446 36.1124,123.28 34.5,124C 33.1667,131.333 33.1667,138.667 34.5,146C 36.1124,146.72 37.6124,146.554 39,145.5C 39.4955,143.527 39.6621,141.527 39.5,139.5C 41.1667,139.5 42.8333,139.5 44.5,139.5C 44.6633,141.857 44.4966,144.19 44,146.5C 43.2525,148.751 41.7525,150.084 39.5,150.5 Z"/></g>
<g><path style="opacity:1" fill="#3a5168" d="M 60.5,150.5 C 58.5,150.5 56.5,150.5 54.5,150.5C 51.909,149.746 50.0757,148.079 49,145.5C 48.3333,138.5 48.3333,131.5 49,124.5C 50.3989,120.762 53.0655,119.096 57,119.5C 61.2003,119.098 64.2003,120.765 66,124.5C 66.6667,131.5 66.6667,138.5 66,145.5C 64.9243,148.079 63.091,149.746 60.5,150.5 Z"/></g>
<g><path style="opacity:1" fill="#b9e4fa" d="M 55.5,123.5 C 57.1439,123.286 58.6439,123.62 60,124.5C 60.6667,131.5 60.6667,138.5 60,145.5C 58.3333,146.833 56.6667,146.833 55,145.5C 54.2036,138.087 54.3703,130.754 55.5,123.5 Z"/></g>
<g><path style="opacity:1" fill="#354b62" d="M 158.5,119.5 C 160.167,119.5 161.833,119.5 163.5,119.5C 163.5,128.5 163.5,137.5 163.5,146.5C 166.167,146.5 168.833,146.5 171.5,146.5C 171.5,147.833 171.5,149.167 171.5,150.5C 167.167,150.5 162.833,150.5 158.5,150.5C 158.5,140.167 158.5,129.833 158.5,119.5 Z"/></g>
<g><path style="opacity:1" fill="#b4def0" d="M 134.5,127.5 C 136.136,131.21 136.802,135.21 136.5,139.5C 135.5,139.5 134.5,139.5 133.5,139.5C 133.505,135.466 133.838,131.466 134.5,127.5 Z"/></g>
<g><path style="opacity:1" fill="#374e65" d="M 91.5,119.5 C 93.1667,119.5 94.8333,119.5 96.5,119.5C 96.3343,123.846 96.501,128.179 97,132.5C 99.3796,128.406 101.213,124.073 102.5,119.5C 104.5,119.5 106.5,119.5 108.5,119.5C 106.312,124.055 104.312,128.722 102.5,133.5C 105.305,138.917 107.305,144.584 108.5,150.5C 106.712,150.785 105.045,150.452 103.5,149.5C 98.4622,133.215 96.1289,133.548 96.5,150.5C 94.8333,150.5 93.1667,150.5 91.5,150.5C 91.5,140.167 91.5,129.833 91.5,119.5 Z"/></g>
<g><path style="opacity:1" fill="#abd4e8" d="M 96.5,119.5 C 98.5,119.5 100.5,119.5 102.5,119.5C 101.213,124.073 99.3796,128.406 97,132.5C 96.501,128.179 96.3343,123.846 96.5,119.5 Z"/></g>
<g><path style="opacity:1" fill="#638097" d="M 157.5,151.5 C 162.167,151.5 166.833,151.5 171.5,151.5C 171.5,152.833 171.5,154.167 171.5,155.5C 168.833,155.5 166.167,155.5 163.5,155.5C 163.5,164.5 163.5,173.5 163.5,182.5C 161.5,182.5 159.5,182.5 157.5,182.5C 157.5,172.167 157.5,161.833 157.5,151.5 Z"/></g>
<g><path style="opacity:1" fill="#5d7a91" d="M 91.5,151.5 C 93.1667,151.5 94.8333,151.5 96.5,151.5C 96.1907,168.359 98.3574,168.693 103,152.5C 104.699,151.594 106.533,151.261 108.5,151.5C 106.661,157.355 104.661,163.188 102.5,169C 104.596,173.124 106.596,177.29 108.5,181.5C 106.604,182.466 104.604,182.799 102.5,182.5C 97.8722,165.796 95.8722,165.796 96.5,182.5C 94.8333,182.5 93.1667,182.5 91.5,182.5C 91.5,172.167 91.5,161.833 91.5,151.5 Z"/></g>
<g><path style="opacity:1" fill="#5f7d94" d="M 54.5,150.5 C 56.5,150.5 58.5,150.5 60.5,150.5C 62.807,151.977 64.6403,153.977 66,156.5C 66.6667,163.167 66.6667,169.833 66,176.5C 64.9574,181.043 62.1241,183.043 57.5,182.5C 52.8759,183.043 50.0426,181.043 49,176.5C 48.1097,169.086 48.443,161.753 50,154.5C 51.3968,152.93 52.8968,151.596 54.5,150.5 Z"/></g>
<g><path style="opacity:1" fill="#b9e5fb" d="M 55.5,155.5 C 57.1439,155.286 58.6439,155.62 60,156.5C 60.6667,163.5 60.6667,170.5 60,177.5C 58.3333,178.833 56.6667,178.833 55,177.5C 54.2036,170.087 54.3703,162.754 55.5,155.5 Z"/></g>
<g><path style="opacity:1" fill="#617f96" d="M 147.5,151.5 C 149.5,151.5 151.5,151.5 153.5,151.5C 153.5,161.833 153.5,172.167 153.5,182.5C 151.5,182.5 149.5,182.5 147.5,182.5C 147.5,172.167 147.5,161.833 147.5,151.5 Z"/></g>
<g><path style="opacity:1" fill="#5f7c93" d="M 75.5,150.5 C 77.8333,150.5 80.1667,150.5 82.5,150.5C 86.6555,153.82 88.3222,158.154 87.5,163.5C 85.5328,163.739 83.6995,163.406 82,162.5C 81.5034,160.19 81.3367,157.857 81.5,155.5C 79.712,155.215 78.0453,155.548 76.5,156.5C 75.1667,163.5 75.1667,170.5 76.5,177.5C 78.0453,178.452 79.712,178.785 81.5,178.5C 81.5,176.167 81.5,173.833 81.5,171.5C 83.5,171.5 85.5,171.5 87.5,171.5C 87.2163,182.546 82.0496,185.546 72,180.5C 70.4279,172.245 70.0946,163.911 71,155.5C 72.3657,153.638 73.8657,151.972 75.5,150.5 Z"/></g>
<g><path style="opacity:1" fill="#5f7d93" d="M 126.5,151.5 C 128.167,151.5 129.833,151.5 131.5,151.5C 130.499,157.164 132.833,159.498 138.5,158.5C 138.5,156.167 138.5,153.833 138.5,151.5C 140.167,151.5 141.833,151.5 143.5,151.5C 141.942,161.845 140.276,172.179 138.5,182.5C 136.167,182.5 133.833,182.5 131.5,182.5C 129.963,172.146 128.296,161.813 126.5,151.5 Z"/></g>
<g><path style="opacity:1" fill="#bbe5f7" d="M 133.5,162.5 C 134.5,162.5 135.5,162.5 136.5,162.5C 135.5,177.167 134.5,177.167 133.5,162.5 Z"/></g>
<g><path style="opacity:1" fill="#607d95" d="M 114.5,151.5 C 116.5,151.5 118.5,151.5 120.5,151.5C 120.5,160.5 120.5,169.5 120.5,178.5C 122.167,178.5 123.833,178.5 125.5,178.5C 125.5,179.833 125.5,181.167 125.5,182.5C 120.167,182.5 114.833,182.5 109.5,182.5C 109.5,181.167 109.5,179.833 109.5,178.5C 111.167,178.5 112.833,178.5 114.5,178.5C 114.5,169.5 114.5,160.5 114.5,151.5 Z"/></g>
<g><path style="opacity:1" fill="#5f7d94" d="M 33.5,150.5 C 35.5,150.5 37.5,150.5 39.5,150.5C 44.0313,153.121 45.698,157.121 44.5,162.5C 42.8333,162.5 41.1667,162.5 39.5,162.5C 39.6621,160.473 39.4955,158.473 39,156.5C 37.6124,155.446 36.1124,155.28 34.5,156C 33.1667,163.333 33.1667,170.667 34.5,178C 36.1124,178.72 37.6124,178.554 39,177.5C 39.4955,175.527 39.6621,173.527 39.5,171.5C 41.5,171.5 43.5,171.5 45.5,171.5C 45.0388,182.536 39.8722,185.536 30,180.5C 27.0816,171.961 26.7483,163.295 29,154.5C 30.3968,152.93 31.8968,151.596 33.5,150.5 Z"/></g>
</svg>
